<svg width="134" height="134" viewBox="0 0 134 134" fill="none" xmlns="http://www.w3.org/2000/svg">
<path fill-rule="evenodd" clip-rule="evenodd" d="M63.802 9.28221L22.8394 49.8742C16.8742 57.1112 15.2916 65.2044 18.0918 74.1537C20.8919 83.1031 27.9416 88.8474 39.2407 91.3866C42.3986 91.3387 45.795 90.7771 49.4297 89.7018C50.0352 89.5227 50.6346 89.3331 51.228 89.1329V111.925C54.4607 114.631 59.2234 114.656 62.4356 111.925V74.9938C62.4356 73.0882 64.848 72.2622 66.0159 73.768L71.889 81.34C74.7184 84.0646 79.1065 84.3343 82.2483 81.9767L82.9757 81.4308C83.0518 81.3736 83.0966 81.284 83.0966 81.1888V57.199C84.4566 56.6641 85.7926 56.2161 87.1047 55.855C91.0441 54.771 94.3542 54.5845 97.035 55.2956C101.557 57.0615 104.412 59.7887 105.602 63.4771C106.792 67.1656 106.102 71.1506 103.531 75.432L63.8112 115.212C60.5707 118.679 60.3904 121.642 63.2705 124.1C66.1506 126.559 68.5665 126.798 70.518 124.817L111.481 84.2246C117.446 76.9876 119.028 68.8945 116.228 59.9451C113.428 50.9958 106.378 45.2515 95.0793 42.7123C91.9214 42.7601 88.5251 43.3217 84.8903 44.397C84.2864 44.5757 83.6885 44.7648 83.0966 44.9644V22.3938C79.9948 19.3157 74.9909 19.3157 71.889 22.3938V54.3802C71.889 56.2897 69.4686 57.1133 68.304 55.6L63.9367 49.9249C62.9902 48.6949 61.5262 47.9743 59.9742 47.9743H53.228C52.1234 47.9743 51.228 48.8697 51.228 49.9743V76.8981C49.8665 77.4338 48.5289 77.8824 47.2154 78.2439C43.2759 79.3279 39.9659 79.5144 37.2851 78.8033C32.7635 77.0374 29.9078 74.3102 28.7179 70.6217C27.5279 66.9333 28.2183 62.9483 30.7889 58.6669L70.5088 18.8867C73.7494 15.4197 73.9296 12.457 71.0495 9.99852C68.1694 7.54001 65.7536 7.30124 63.802 9.28221Z" fill="url(#paint0_linear_34354_11824)"/>
<defs>
<linearGradient id="paint0_linear_34354_11824" x1="-32.5344" y1="67.0301" x2="82.8528" y2="165.462" gradientUnits="userSpaceOnUse">
<stop stop-color="#6B65DE"/>
<stop offset="1" stop-color="#E89DE7"/>
</linearGradient>
</defs>
</svg>
